<svg xmlns="http://www.w3.org/2000/svg" width="48" height="48" viewBox="0 0 48 48">
    <g fill="none" fill-rule="evenodd">
        <path fill="#D4D4D4" d="M42 41.25h-5.382v-7.566h6.632V40c0 .689-.561 1.25-1.25 1.25zM4.75 40v-6.316h6.632v7.566H6c-.689 0-1.25-.561-1.25-1.25zM6 6.75h5.382v7.566H4.75V8c0-.689.561-1.25 1.25-1.25zM43.25 8v6.316h-6.632V6.75H42c.689 0 1.25.561 1.25 1.25zm-6.632 24.184h6.632V24.75h-6.632v7.434zM12.882 41.25h22.236v-16.5H12.882v16.5zM4.75 32.184h6.632V24.75H4.75v7.434zm0-8.934h6.632v-7.434H4.75v7.434zm8.132 0h22.236V6.75H12.882v16.5zm23.736 0h6.632v-7.434h-6.632v7.434zM42 5.25H6A2.752 2.752 0 0 0 3.25 8v32A2.752 2.752 0 0 0 6 42.75h36A2.752 2.752 0 0 0 44.75 40V8A2.752 2.752 0 0 0 42 5.25z"/>
    </g>
</svg>
