<?xml version="1.0" encoding="UTF-8"?>
<svg width="16px" height="16px" viewBox="0 0 16 16" version="1.1" xmlns="http://www.w3.org/2000/svg" xmlns:xlink="http://www.w3.org/1999/xlink">
    <title>Icon / IcTabBar / IcSearchAnd</title>
    <g id="UI---홈-/-검색" stroke="none" stroke-width="1" fill="none" fill-rule="evenodd" fill-opacity="0.76">
        <g id="_Global-/-NavigationBar-/-Items-/-Search-/-Empty" transform="translate(-11.000000, -11.000000)" fill="#7E7E7E">
            <g id="Group-13">
                <g id="Icon-/-IcTabBar-/-IcSearchAnd" transform="translate(10.000000, 10.000000)">
                    <path d="M8.02998415,12.8739979 C5.40608112,12.8739979 3.27054858,10.7228403 3.27054858,8.078759 C3.27054858,5.43388007 5.40608112,3.28272251 8.02998415,3.28272251 C10.6538872,3.28272251 12.7894197,5.43388007 12.7894197,8.078759 C12.7894197,10.7228403 10.6538872,12.8739979 8.02998415,12.8739979 M16.0813693,14.9517752 L13.0862413,11.9208524 C13.888847,10.8496605 14.3724683,9.52163776 14.3724683,8.078759 C14.3724683,4.55411486 11.5269385,1.6875 8.02998415,1.6875 C4.53302983,1.6875 1.6875,4.55411486 1.6875,8.078759 C1.6875,11.6026055 4.53302983,14.4692204 8.02998415,14.4692204 C9.52596506,14.4692204 10.8992597,13.9419993 11.9844395,13.0662222 L14.9605709,16.0780023 C15.1093774,16.2295484 15.3088415,16.3125 15.5209701,16.3125 C15.7315155,16.3125 15.9293966,16.230346 16.0797862,16.0803951 C16.2285928,15.9296466 16.3117028,15.7294462 16.3125,15.516484 C16.3132859,15.3035218 16.2309673,15.1025237 16.0813693,14.9517752" id="Fill-1" fill="#BABAC3"></path>
                </g>
            </g>
        </g>
    </g>
</svg>