<svg xmlns="http://www.w3.org/2000/svg" width="116" height="70" viewBox="0 0 116 70">
    <g fill="none" fill-rule="evenodd">
        <path d="M0 0H110V70H0z"/>
        <g fill="#FF0558">
            <path d="M100.575 9.739l-1.726 24.315 4.37-.46.139-4.936 1.555-.133.275 4.864 3.855-.405-1.97-23.245h-6.498zm3.162 5.54h.428l.53 9.384-1.226.076.268-9.46zM31.693 0L29.659 29.581 29.149 29.609 24.841 9.739 17.989 9.739 14.762 30.56 14.076 30.599 10.965 9.739 0 9.739 6.596 43.75 18.93 42.454 21.378 23.248 22.063 23.212 25.355 41.779 35.462 40.716 42.23 0zM61.674 37.961L67.841 37.313 67.841 16.695 71.353 16.603 71.353 9.739 57.477 9.739 57.477 16.967 61.674 16.856zM78.67 36.464c4.023-.45 6.144-2.695 6.144-6.046v-5.467l-5.202.31v7.07l-1.713.143V14.825l1.713-.025v4.808l5.116-.195v-4.708c0-3.138-2.118-5.335-5.972-5.335-4.112 0-6.499 2.197-6.499 5.548V31.78c0 3.493 1.959 5.183 6.413 4.684M91.312 24.558L93.11 24.448 93.11 34.657 97.65 34.18 97.65 9.739 93.11 9.739 93.11 19.69 91.312 19.766 91.312 9.739 86.27 9.739 86.27 35.368 91.312 34.846zM80.46 69.706L87.183 69.706 87.183 40.173 80.46 40.926zM72.543 64.521l-1.995.042v-17.08l1.995-.146V64.52zm-.694-22.76l-7.24.761v27.184h5.733c6.42 0 8.54-3.023 8.54-8.902v-10.98c0-5.456-1.476-8.647-7.033-8.063zM96.812 57.397l.707-11.404 1.235-.076 1.093 11.352-3.035.128zm-4.438-17.762l-3.61 30.071h7.284l.38-6.127 4.017-.1.6 6.227h7.973l-4.986-31.329-11.658 1.258zM47.688 28.4l1.056-11.71.942-.013 1.103 11.52-3.1.203zM54.65 9.739H43.686l-5.054 30.643 8.052-.845.495-5.492 4.136-.361.508 5.313 7.196-.757L54.65 9.74zM58.318 58.86L62.371 58.688 62.371 53.763 58.318 53.991 58.318 49.008 62.839 48.657 62.839 42.708 52.679 43.776 52.679 69.706 63.224 69.706 63.224 64.266 58.318 64.354zM46.285 56.375l-1.648.086v-7.154l1.648-.136v7.204zm.21-11.949l-7.324.77v24.51h5.466v-9.315l2.18-.084c3.304-.126 4.533-2.369 4.533-5.606v-4.737c0-4.27-1.911-5.848-4.855-5.538z" transform="translate(.094)"/>
        </g>
    </g>
</svg>
